<?xml version="1.0" encoding="utf-8"?>
<svg version="1.1" id="Layer_1" xmlns="http://www.w3.org/2000/svg" xmlns:xlink="http://www.w3.org/1999/xlink" x="0px" y="0px"
	 viewBox="0 0 259.6 259.8" style="enable-background:new 0 0 259.6 259.8;" xml:space="preserve">
<style type="text/css">
	.st0{fill:#0C415C;}
	.st1{fill:#004E77;}
	.st2{fill:#D4D5D4;}
	.st3{fill:#FEFEFE;}
</style>
<g id="Layer_x0020_1">
	<g id="_1810319128736">
		<path class="st0" d="M61.2,194.8C61,198,70.9,206,73.1,208.3c4.6,4.9,36.7,37.2,39.4,38.9c-1,2.3,0.5,0.4-1,0.9
			c3.5-0.3,14.1,2,28.4,0.8c24.7-2.1,48-12,65.7-26.6c19.6-16.2,39-42.7,42.9-80.6l-40.3-39.7c-2.9-3-11-12-14.5-12.6
			c4,9,14.5,22.8,10.9,40.3c-5.1,0.5-9,0.8-13.5,2.3c-3.5,1.2-8.2,4.5-11.2,3.8c-1-0.5-8.2-14.6,10.2-17.2
			c-6.7-53.2-91.4-59.5-112.9-12c-8,17.8-0.4,37.5,11,45.1l-5.3,23.3c4.4-1.2,8.1-2.7,12.4-4.5c3.6-1.4,8.8-4.3,11.9-5.3
			c3.2-1,9,2.9,12.1,4.3c17.6,8.2,34.4-4.8,23.1-16.3c-8.2-8.2-33.6-9.8-34.9-32.9c-1.8-33.9,44.6-30.2,51.4-21.3
			c2.4,3,1.7,11.5,0.1,14.1c-4,1.1-17.3-9.6-27.7-4.5c-4.1,2-11.6,12.2,6,20.2c9,4.1,16.7,6.5,22.5,13.1c5.6,6.3,7.5,17.8,3.4,27.3
			c-8.3,19.4-36.3,20.9-50.1,13.8c-7.9-4.1-3.9-4.1-12-0.6c-10.1,4.2-16,6.1-26.6,8.9C71.3,192.3,63.9,193.7,61.2,194.8z"/>
		<path class="st1" d="M111.5,248c1.5-0.5,0,1.4,1-0.9c-2.7-1.6-34.8-34-39.4-38.9C70.9,206,61,198,61.2,194.8
			c-0.9-0.5-1.8,0.3,0.1-3.1l5-10.2c2-4.5,3.7-9.7,4.9-15c2.7-12.4,0.4-11.1-2.8-15.7c-9.6-13.7-10.6-32.9-5.1-48.3
			c14.4-40.2,74.1-53.3,110-32c13.9,8.2,17.7,16.6,20.5,18.8c3.5,0.7,11.6,9.7,14.5,12.6l40.3,39.7c4.9-56-27.3-97.7-60.3-115.6
			C141.9,0.9,89.1,9.1,54.1,37.9C-10,90.6-4.1,195.4,77.3,237C89.3,243.2,97.6,244.5,111.5,248z"/>
		<path class="st2" d="M248.6,141.6c-4,37.9-23.4,64.5-42.9,80.6c-17.7,14.7-41,24.6-65.7,26.6c-14.3,1.2-24.9-1.1-28.4-0.8
			c-13.8-3.6-22.1-4.9-34.2-11C-4.1,195.4-10,90.6,54.1,37.9C89.1,9.1,141.9,0.9,188.3,26C221.3,43.9,253.4,85.6,248.6,141.6z
			 M116.2,0.9C65.5,7.3,24.3,38.4,7.3,87c-12.4,35.4-8.9,74,9,106.2C54.4,262,146.1,282.7,212,230.7
			c46.2-36.4,62.9-106.2,31.6-163.4c-7.5-13.7-19.2-27.7-29.2-35.9C187.8,9.5,152.9-3.7,116.2,0.9z"/>
		<path class="st3" d="M61.2,194.8c2.7-1.2,10.1-2.6,13.6-3.5c10.6-2.9,16.6-4.7,26.6-8.9c8.2-3.5,4.1-3.5,12,0.6
			c13.8,7.1,41.7,5.5,50.1-13.8c4.1-9.5,2.2-21-3.4-27.3c-5.8-6.6-13.5-9-22.5-13.1c-17.5-8-10.1-18.2-6-20.2
			c10.4-5.1,23.7,5.6,27.7,4.5c1.5-2.6,2.2-11.1-0.1-14.1c-6.8-8.8-53.3-12.6-51.4,21.3c1.2,23.1,26.7,24.6,34.9,32.9
			c11.3,11.4-5.5,24.4-23.1,16.3c-3.1-1.4-8.9-5.4-12.1-4.3c-3.1,1-8.3,3.9-11.9,5.3c-4.3,1.7-8.1,3.3-12.4,4.5l5.3-23.3
			c-11.4-7.6-19-27.4-11-45.1c21.4-47.5,106.2-41.2,112.9,12c-18.5,2.7-11.2,16.7-10.2,17.2c2.9,0.7,7.7-2.6,11.2-3.8
			c4.5-1.5,8.4-1.8,13.5-2.3c3.5-17.5-7-31.3-10.9-40.3c-2.8-2.2-6.6-10.6-20.5-18.8c-35.9-21.3-95.7-8.2-110,32
			c-5.5,15.4-4.5,34.6,5.1,48.3c3.2,4.6,5.6,3.3,2.8,15.7c-1.2,5.3-2.9,10.5-4.9,15l-5,10.2C59.4,195.1,60.2,194.3,61.2,194.8z"/>
	</g>
</g>
</svg>
